<?xml version="1.0" encoding="UTF-8"?>
<!DOCTYPE svg PUBLIC "-//W3C//DTD SVG 1.1//EN" "http://www.w3.org/Graphics/SVG/1.1/DTD/svg11.dtd">
<svg xmlns="http://www.w3.org/2000/svg" version="1.1" width="379px" height="234px" style="shape-rendering:geometricPrecision; text-rendering:geometricPrecision; image-rendering:optimizeQuality; fill-rule:evenodd; clip-rule:evenodd" xmlns:xlink="http://www.w3.org/1999/xlink">
<g><path style="opacity:0.944" fill="#db6e09" d="M 111.5,11.5 C 160.001,8.82154 194.834,29.1549 216,72.5C 219.44,81.5949 221.94,90.9283 223.5,100.5C 219.853,102.725 216.353,102.392 213,99.5C 211.351,86.3809 206.851,74.3809 199.5,63.5C 189.921,67.9706 179.921,71.1373 169.5,73C 171.815,81.9869 173.148,91.1536 173.5,100.5C 170.167,100.5 166.833,100.5 163.5,100.5C 162.828,91.7927 161.828,83.126 160.5,74.5C 149.844,75.0995 139.177,75.4328 128.5,75.5C 128.5,83.8333 128.5,92.1667 128.5,100.5C 125.167,100.5 121.833,100.5 118.5,100.5C 118.5,92.1667 118.5,83.8333 118.5,75.5C 107.823,75.4328 97.1564,75.0995 86.5,74.5C 84.6769,85.0855 83.6769,95.7522 83.5,106.5C 94.5,106.5 105.5,106.5 116.5,106.5C 116.5,109.833 116.5,113.167 116.5,116.5C 105.5,116.5 94.5,116.5 83.5,116.5C 83.4019,127.548 84.7352,138.381 87.5,149C 97.1671,148.875 106.834,148.375 116.5,147.5C 116.5,151.167 116.5,154.833 116.5,158.5C 107.448,158.193 98.4483,158.693 89.5,160C 93.5463,174.108 100.88,186.108 111.5,196C 113.746,197.039 115.913,198.206 118,199.5C 118.499,193.509 118.666,187.509 118.5,181.5C 121.833,181.5 125.167,181.5 128.5,181.5C 128.334,187.509 128.501,193.509 129,199.5C 136.783,195.384 142.95,189.55 147.5,182C 151.5,181.333 155.5,181.333 159.5,182C 156.224,187.608 152.557,192.942 148.5,198C 160.446,195.361 171.112,190.027 180.5,182C 185.5,181.333 190.5,181.333 195.5,182C 160.083,214.18 120.416,220.513 76.5,201C 33.4179,174.65 16.5846,136.484 26,86.5C 39.4263,44.2362 67.9263,19.2362 111.5,11.5 Z M 116.5,24.5 C 118.482,37.7924 119.149,51.4591 118.5,65.5C 108.796,65.6982 99.1298,65.1982 89.5,64C 93.5098,51.3085 99.8431,39.9751 108.5,30C 111.07,27.9131 113.737,26.0798 116.5,24.5 Z M 128.5,24.5 C 135.379,27.03 140.879,31.3633 145,37.5C 150.114,45.8949 154.281,54.7282 157.5,64C 147.87,65.1982 138.204,65.6982 128.5,65.5C 128.5,51.8333 128.5,38.1667 128.5,24.5 Z M 98.5,25.5 C 89.9514,36.4277 83.6181,48.5944 79.5,62C 70.3771,61.5517 61.7104,59.2184 53.5,55C 65.2083,40.1458 80.2083,30.3125 98.5,25.5 Z M 148.5,25.5 C 166.792,30.3125 181.792,40.1458 193.5,55C 185.29,59.2184 176.623,61.5517 167.5,62C 163.382,48.5944 157.049,36.4277 148.5,25.5 Z M 46.5,63.5 C 56.4663,67.7658 66.7997,70.9325 77.5,73C 74.6527,83.9467 73.3194,95.1133 73.5,106.5C 60.1667,106.5 46.8333,106.5 33.5,106.5C 34.4136,91.0955 38.747,76.7622 46.5,63.5 Z M 33.5,116.5 C 46.8333,116.5 60.1667,116.5 73.5,116.5C 73.7583,128.232 74.7583,139.899 76.5,151.5C 66.131,152.908 56.131,155.408 46.5,159C 38.2347,146.037 33.9013,131.871 33.5,116.5 Z M 76.5,160.5 C 77.8221,160.33 78.9887,160.663 80,161.5C 83.4012,175.136 89.5679,187.303 98.5,198C 80.5607,193.179 65.5607,183.513 53.5,169C 60.8466,165.054 68.5132,162.221 76.5,160.5 Z"/></g>
<g><path style="opacity:0.97" fill="#db6e09" d="M 250.5,104.5 C 260.541,104.244 270.541,104.744 280.5,106C 296.145,111.101 304.145,121.934 304.5,138.5C 304.196,155.624 295.863,166.458 279.5,171C 269.839,171.5 260.172,171.666 250.5,171.5C 251.758,149.179 251.758,126.846 250.5,104.5 Z M 264.5,119.5 C 283.939,118.437 291.772,127.437 288,146.5C 283.06,155.995 275.226,159.661 264.5,157.5C 264.5,144.833 264.5,132.167 264.5,119.5 Z"/></g>
<g><path style="opacity:1" fill="#dc7113" d="M 122.5,105.5 C 131.876,105.555 141.043,105.555 150,105.5C 170.895,112.977 178.895,127.31 174,148.5C 170.418,160.415 162.585,167.915 150.5,171C 141.173,171.5 131.839,171.666 122.5,171.5C 122.5,149.5 122.5,127.5 122.5,105.5 Z M 157.5,150.5 C 155.5,151.833 153.833,153.5 152.5,155.5C 151.275,155.031 150.275,155.698 149.5,157.5C 148.158,156.098 147.324,156.431 147,158.5C 143.663,158.248 139.996,157.915 136,157.5C 135.333,144.833 135.333,132.167 136,119.5C 153.096,118.223 161.596,125.889 161.5,142.5C 159.943,145.615 158.609,148.282 157.5,150.5 Z"/></g>
<g><path style="opacity:1" fill="#dc7215" d="M 232.5,104.5 C 233.806,104.879 235.139,105.212 236.5,105.5C 235.174,120.654 235.174,135.821 236.5,151C 234.735,163.047 227.902,170.214 216,172.5C 213.205,171.253 210.372,171.253 207.5,172.5C 196.11,169.273 189.443,161.773 187.5,150C 188.491,135.245 188.824,120.412 188.5,105.5C 192.833,105.5 197.167,105.5 201.5,105.5C 201.333,120.837 201.5,136.17 202,151.5C 208.491,160.653 215.324,160.82 222.5,152C 222.468,136.709 222.468,121.209 222.5,105.5C 226.042,105.813 229.375,105.479 232.5,104.5 Z"/></g>
<g><path style="opacity:0.953" fill="#da6e08" d="M 316.5,104.5 C 327.833,104.5 339.167,104.5 350.5,104.5C 350.5,109.5 350.5,114.5 350.5,119.5C 343.833,119.5 337.167,119.5 330.5,119.5C 330.5,123.5 330.5,127.5 330.5,131.5C 336.5,131.5 342.5,131.5 348.5,131.5C 348.5,136.167 348.5,140.833 348.5,145.5C 342.5,145.5 336.5,145.5 330.5,145.5C 330.5,149.5 330.5,153.5 330.5,157.5C 337.5,157.5 344.5,157.5 351.5,157.5C 351.5,162.167 351.5,166.833 351.5,171.5C 339.833,171.5 328.167,171.5 316.5,171.5C 316.5,149.167 316.5,126.833 316.5,104.5 Z"/></g>
<g><path style="opacity:1" fill="#eea569" d="M 157.5,150.5 C 156.833,153.167 155.167,154.833 152.5,155.5C 153.833,153.5 155.5,151.833 157.5,150.5 Z"/></g>
</svg>
