<svg viewBox="-3.918918918918919 -2.71 108.10810810810811 105.57000000000001" version="1.1" xmlns="http://www.w3.org/2000/svg" style="max-height: 500px" width="108.10810810810811" height="105.57000000000001">
 <path fill-rule="evenodd" d="m91.836 99.625h-83.676c-4.5 0-8.1602-3.6602-8.1602-8.1602v-73.262c0-4.5 3.6602-8.1602 8.1602-8.1602h3.9727c0.73438 0 1.332 0.59766 1.332 1.332v8.168c0 0.089843 0.078125 0.16797 0.16797 0.16797h5.9531c0.089843 0 0.16797-0.078126 0.16797-0.16797v-8.168c0-0.73438 0.59766-1.332 1.332-1.332h7.75c0.73437 0 1.332 0.59766 1.332 1.332v8.168c0 0.089843 0.078125 0.16797 0.16797 0.16797h5.9531c0.089844 0 0.16797-0.078126 0.16797-0.16797v-8.168c0-0.73438 0.59766-1.332 1.332-1.332h7.75c0.73438 0 1.332 0.59766 1.332 1.332v8.168c0 0.089843 0.078125 0.16797 0.16797 0.16797h5.9531c0.089843 0 0.16797-0.078126 0.16797-0.16797v-8.168c0-0.73438 0.59766-1.332 1.332-1.332h7.75c0.73437 0 1.332 0.59766 1.332 1.332v8.168c0 0.089843 0.078125 0.16797 0.16797 0.16797h5.9531c0.089844 0 0.16797-0.078126 0.16797-0.16797v-8.168c0-0.73438 0.59766-1.332 1.332-1.332h7.75c0.73438 0 1.332 0.59766 1.332 1.332v8.168c0 0.089843 0.078125 0.16797 0.16797 0.16797h5.9531c0.089843 0 0.16797-0.078126 0.16797-0.16797v-8.168c0-0.73438 0.59766-1.332 1.332-1.332h3.9688c4.5 0 8.1602 3.6602 8.1602 8.1602v73.262c0 4.5-3.6602 8.1602-8.1602 8.1602zm-83.676-86.918c-3.0312 0-5.5 2.4688-5.5 5.5v73.262c0 3.0312 2.4648 5.5 5.5 5.5h83.676c3.0312 0 5.5-2.4648 5.5-5.5v-73.262c0-3.0312-2.4648-5.5-5.5-5.5h-2.6406v6.8398c0 1.5586-1.2695 2.8281-2.8281 2.8281h-5.9531c-1.5586 0-2.8281-1.2695-2.8281-2.8281v-6.8398h-5.0859v6.8398c0 1.5586-1.2695 2.8281-2.8281 2.8281h-5.9531c-1.5586 0-2.8281-1.2695-2.8281-2.8281v-6.8398h-5.0859v6.8398c0 1.5586-1.2695 2.8281-2.8281 2.8281h-5.9531c-1.5586 0-2.8281-1.2695-2.8281-2.8281v-6.8398h-5.0859v6.8398c0 1.5586-1.2695 2.8281-2.8281 2.8281h-5.9531c-1.5586 0-2.8281-1.2695-2.8281-2.8281v-6.8398h-5.0859v6.8398c0 1.5586-1.2695 2.8281-2.8281 2.8281h-5.9531c-1.5586 0-2.8281-1.2695-2.8281-2.8281v-6.8398z"/>
 <path fill-rule="evenodd" d="m19.582 22.371h-5.9531c-1.5586 0-2.8281-1.2695-2.8281-2.8281v-16.336c0-1.5586 1.2695-2.8281 2.8281-2.8281h5.9531c1.5586 0 2.8281 1.2695 2.8281 2.8281v16.336c0 1.5586-1.2695 2.8281-2.8281 2.8281zm-5.9531-19.332c-0.089844 0-0.16797 0.078126-0.16797 0.16797v16.336c0 0.089843 0.078124 0.16797 0.16797 0.16797h5.9531c0.089844 0 0.16797-0.078126 0.16797-0.16797v-16.336c0-0.089843-0.078125-0.16797-0.16797-0.16797z"/>
 <path fill-rule="evenodd" d="m36.277 22.371h-5.9531c-1.5586 0-2.8281-1.2695-2.8281-2.8281v-16.336c0-1.5586 1.2695-2.8281 2.8281-2.8281h5.9531c1.5586 0 2.8281 1.2695 2.8281 2.8281v16.336c0 1.5586-1.2695 2.8281-2.8281 2.8281zm-5.9531-19.332c-0.089844 0-0.16797 0.078126-0.16797 0.16797v16.336c0 0.089843 0.078125 0.16797 0.16797 0.16797h5.9531c0.089844 0 0.16797-0.078126 0.16797-0.16797v-16.336c0-0.089843-0.078124-0.16797-0.16797-0.16797z"/>
 <path fill-rule="evenodd" d="m52.977 22.371h-5.9531c-1.5586 0-2.8281-1.2695-2.8281-2.8281v-16.336c0-1.5586 1.2695-2.8281 2.8281-2.8281h5.9531c1.5586 0 2.8281 1.2695 2.8281 2.8281v16.336c0 1.5586-1.2695 2.8281-2.8281 2.8281zm-5.9531-19.332c-0.089844 0-0.16797 0.078126-0.16797 0.16797v16.336c0 0.089843 0.078125 0.16797 0.16797 0.16797h5.9531c0.089844 0 0.16797-0.078126 0.16797-0.16797v-16.336c0-0.089843-0.078125-0.16797-0.16797-0.16797z"/>
 <path fill-rule="evenodd" d="m69.672 22.371h-5.9531c-1.5586 0-2.8281-1.2695-2.8281-2.8281v-16.336c0-1.5586 1.2695-2.8281 2.8281-2.8281h5.9531c1.5586 0 2.8281 1.2695 2.8281 2.8281v16.336c0 1.5586-1.2695 2.8281-2.8281 2.8281zm-5.9492-19.332c-0.089844 0-0.16797 0.078126-0.16797 0.16797v16.336c0 0.089843 0.078124 0.16797 0.16797 0.16797h5.9531c0.089844 0 0.16797-0.078126 0.16797-0.16797v-16.336c0-0.089843-0.078125-0.16797-0.16797-0.16797z"/>
 <path fill-rule="evenodd" d="m86.367 22.371h-5.9531c-1.5586 0-2.8281-1.2695-2.8281-2.8281v-16.336c0-1.5586 1.2695-2.8281 2.8281-2.8281h5.9531c1.5586 0 2.8281 1.2695 2.8281 2.8281v16.336c0 1.5586-1.2695 2.8281-2.8281 2.8281zm-5.9531-19.332c-0.089843 0-0.16797 0.078126-0.16797 0.16797v16.336c0 0.089843 0.078125 0.16797 0.16797 0.16797h5.9531c0.089843 0 0.16797-0.078126 0.16797-0.16797v-16.336c0-0.089843-0.078125-0.16797-0.16797-0.16797z"/>
 <path fill-rule="evenodd" d="m98.668 32.543h-97.332c-0.73438 0-1.332-0.59766-1.332-1.332 0-0.73438 0.59766-1.332 1.332-1.332h97.332c0.73438 0 1.332 0.59766 1.332 1.332 0 0.73437-0.59766 1.332-1.332 1.332z"/>
 <path fill-rule="evenodd" d="m22.355 51.297h-9.8477c-1.5312 0-2.7773-1.2461-2.7773-2.7773v-8.125c0-1.5312 1.2461-2.7773 2.7773-2.7773h9.8477c1.5312 0 2.7773 1.2461 2.7773 2.7773v8.125c0 1.5312-1.2461 2.7773-2.7773 2.7773zm-9.8477-11.016c-0.058593 0-0.11328 0.054688-0.11328 0.11328v8.125c0 0.058594 0.054688 0.11328 0.11328 0.11328h9.8477c0.058593 0 0.11328-0.054687 0.11328-0.11328v-8.125c0-0.058593-0.054688-0.11328-0.11328-0.11328z"/>
 <path fill-rule="evenodd" d="m44.066 51.297h-9.8477c-1.5312 0-2.7773-1.2461-2.7773-2.7773v-8.125c0-1.5312 1.2461-2.7773 2.7773-2.7773h9.8477c1.5312 0 2.7773 1.2461 2.7773 2.7773v8.125c0 1.5312-1.2461 2.7773-2.7773 2.7773zm-9.8477-11.016c-0.058594 0-0.11328 0.054688-0.11328 0.11328v8.125c0 0.058594 0.054687 0.11328 0.11328 0.11328h9.8477c0.058594 0 0.11328-0.054687 0.11328-0.11328v-8.125c0-0.058593-0.054688-0.11328-0.11328-0.11328z"/>
 <path fill-rule="evenodd" d="m65.777 51.297h-9.8438c-1.5312 0-2.7773-1.2461-2.7773-2.7773v-8.125c0-1.5312 1.2461-2.7773 2.7773-2.7773h9.8477c1.5312 0 2.7773 1.2461 2.7773 2.7773v8.125c0 1.5312-1.2461 2.7773-2.7773 2.7773zm-9.8438-11.016c-0.058594 0-0.11328 0.054688-0.11328 0.11328v8.125c0 0.058594 0.054688 0.11328 0.11328 0.11328h9.8477c0.058594 0 0.11719-0.054687 0.11719-0.11328v-8.125c0-0.058593-0.054688-0.11328-0.11719-0.11328z"/>
 <path fill-rule="evenodd" d="m87.488 51.297h-9.8477c-1.5312 0-2.7773-1.2461-2.7773-2.7773v-8.125c0-1.5312 1.2461-2.7773 2.7773-2.7773h9.8477c1.5312 0 2.7773 1.2461 2.7773 2.7773v8.125c0 1.5312-1.2461 2.7773-2.7773 2.7773zm-9.8477-11.016c-0.058594 0-0.11328 0.054688-0.11328 0.11328v8.125c0 0.058594 0.054687 0.11328 0.11328 0.11328h9.8477c0.058594 0 0.11719-0.054687 0.11719-0.11328v-8.125c0-0.058593-0.054688-0.11328-0.11719-0.11328z"/>
 <path fill-rule="evenodd" d="m22.355 71.59h-9.8477c-1.5312 0-2.7773-1.2461-2.7773-2.7773v-8.125c0-1.5312 1.2461-2.7773 2.7773-2.7773h9.8477c1.5312 0 2.7773 1.2461 2.7773 2.7773v8.125c0 1.5312-1.2461 2.7734-2.7773 2.7734zm-9.8477-11.016c-0.0625 0-0.11328 0.054687-0.11328 0.11719v8.125c0 0.058594 0.054688 0.11719 0.11328 0.11719h9.8477c0.058593 0 0.11328-0.054688 0.11328-0.11719v-8.125c0-0.0625-0.054688-0.11719-0.11328-0.11719z"/>
 <path fill-rule="evenodd" d="m44.066 71.59h-9.8477c-1.5312 0-2.7773-1.2461-2.7773-2.7773v-8.125c0-1.5312 1.2461-2.7773 2.7773-2.7773h9.8477c1.5312 0 2.7773 1.2461 2.7773 2.7773v8.125c0 1.5312-1.2461 2.7734-2.7773 2.7734zm-9.8477-11.016c-0.058594 0-0.11328 0.054687-0.11328 0.11719v8.125c0 0.058594 0.054687 0.11719 0.11328 0.11719h9.8477c0.058594 0 0.11328-0.054688 0.11328-0.11719v-8.125c0-0.0625-0.054688-0.11719-0.11328-0.11719z"/>
 <path fill-rule="evenodd" d="m65.777 71.59h-9.8438c-1.5312 0-2.7773-1.2461-2.7773-2.7773v-8.125c0-1.5312 1.2461-2.7773 2.7773-2.7773h9.8477c1.5312 0 2.7773 1.2461 2.7773 2.7773v8.125c0 1.5312-1.2461 2.7734-2.7773 2.7734zm-9.8438-11.016c-0.0625 0-0.11328 0.054687-0.11328 0.11719v8.125c0 0.058594 0.054688 0.11719 0.11328 0.11719h9.8477c0.058594 0 0.11719-0.054688 0.11719-0.11719v-8.125c0-0.058594-0.054688-0.11719-0.11719-0.11719z"/>
 <path fill-rule="evenodd" d="m87.488 71.59h-9.8477c-1.5312 0-2.7773-1.2461-2.7773-2.7773v-8.125c0-1.5312 1.2461-2.7773 2.7773-2.7773h9.8477c1.5312 0 2.7773 1.2461 2.7773 2.7773v8.125c0 1.5312-1.2461 2.7734-2.7773 2.7734zm-9.8477-11.016c-0.058594 0-0.11328 0.054687-0.11328 0.11719v8.125c0 0.058594 0.054687 0.11719 0.11328 0.11719h9.8477c0.058594 0 0.11719-0.054688 0.11719-0.11719v-8.125c0-0.058594-0.054688-0.11719-0.11719-0.11719z"/>
 <path fill-rule="evenodd" d="m22.355 91.887h-9.8477c-1.5312 0-2.7773-1.2461-2.7773-2.7773v-8.125c0-1.5312 1.2461-2.7773 2.7773-2.7773h9.8477c1.5312 0 2.7773 1.2461 2.7773 2.7773v8.125c0 1.5312-1.2461 2.7773-2.7773 2.7773zm-9.8477-11.016c-0.058593 0-0.11328 0.054687-0.11328 0.11719v8.125c0 0.058594 0.054688 0.11719 0.11328 0.11719h9.8477c0.058593 0 0.11328-0.054688 0.11328-0.11719v-8.125c0-0.058593-0.054688-0.11719-0.11328-0.11719z"/>
 <path fill-rule="evenodd" d="m44.066 91.887h-9.8477c-1.5312 0-2.7773-1.2461-2.7773-2.7773v-8.125c0-1.5312 1.2461-2.7773 2.7773-2.7773h9.8477c1.5312 0 2.7773 1.2461 2.7773 2.7773v8.125c0 1.5312-1.2461 2.7773-2.7773 2.7773zm-9.8477-11.016c-0.058594 0-0.11328 0.054687-0.11328 0.11719v8.125c0 0.058594 0.054687 0.11719 0.11328 0.11719h9.8477c0.058594 0 0.11328-0.054688 0.11328-0.11719v-8.125c0-0.058593-0.054688-0.11719-0.11328-0.11719z"/>
 <path fill-rule="evenodd" d="m65.777 91.887h-9.8438c-1.5312 0-2.7773-1.2461-2.7773-2.7773v-8.125c0-1.5312 1.2461-2.7773 2.7773-2.7773h9.8477c1.5312 0 2.7773 1.2461 2.7773 2.7773v8.125c0 1.5312-1.2461 2.7773-2.7773 2.7773zm-9.8438-11.016c-0.058594 0-0.11328 0.054687-0.11328 0.11719v8.125c0 0.058594 0.054688 0.11719 0.11328 0.11719h9.8477c0.058594 0 0.11719-0.054688 0.11719-0.11719v-8.125c0-0.058593-0.054688-0.11719-0.11719-0.11719z"/>
 <path fill-rule="evenodd" d="m87.488 91.887h-9.8477c-1.5312 0-2.7773-1.2461-2.7773-2.7773v-8.125c0-1.5312 1.2461-2.7773 2.7773-2.7773h9.8477c1.5312 0 2.7773 1.2461 2.7773 2.7773v8.125c0 1.5312-1.2461 2.7773-2.7773 2.7773zm-9.8477-11.016c-0.058594 0-0.11328 0.054687-0.11328 0.11719v8.125c0 0.058594 0.054687 0.11719 0.11328 0.11719h9.8477c0.058594 0 0.11719-0.054688 0.11719-0.11719v-8.125c0-0.058593-0.054688-0.11719-0.11719-0.11719z"/>
 <path fill-rule="evenodd" d="m81.641 67.969c-0.33984 0-0.67969-0.12891-0.94141-0.39062l-1.9219-1.9219c-0.51953-0.51953-0.51953-1.3633 0-1.8828 0.51953-0.51953 1.3633-0.51953 1.8828 0l0.98047 0.98047 2.8281-2.8281c0.51953-0.51953 1.3633-0.51953 1.8828 0 0.51953 0.51953 0.51953 1.3633 0 1.8828l-3.7695 3.7695c-0.25781 0.26172-0.59766 0.39062-0.94141 0.39062z"/>
 <path fill-rule="evenodd" d="m38.219 88.262c-0.33984 0-0.67969-0.12891-0.94141-0.39062l-1.9219-1.9219c-0.51953-0.51953-0.51953-1.3633 0-1.8828 0.51953-0.51953 1.3633-0.51953 1.8828 0l0.98047 0.98047 2.8281-2.8281c0.51953-0.51953 1.3633-0.51953 1.8828 0 0.51953 0.51953 0.51953 1.3633 0 1.8828l-3.7695 3.7695c-0.25781 0.25781-0.60156 0.39062-0.94141 0.39062z"/>
 <path fill-rule="evenodd" d="m37.059 68.172c-0.33984 0-0.67969-0.12891-0.94141-0.39062-0.51953-0.51953-0.51953-1.3633 0-1.8828l4.1758-4.1758c0.51953-0.51953 1.3633-0.51953 1.8828 0 0.51953 0.51953 0.51953 1.3633 0 1.8828l-4.1758 4.1758c-0.26172 0.25781-0.60156 0.39062-0.94141 0.39062z"/>
 <path fill-rule="evenodd" d="m41.23 68.172c-0.33984 0-0.67969-0.12891-0.94141-0.39062l-4.1758-4.1758c-0.51953-0.51953-0.51953-1.3633 0-1.8828 0.51953-0.51953 1.3633-0.51953 1.8828 0l4.1758 4.1758c0.51953 0.51953 0.51953 1.3633 0 1.8828-0.26172 0.25781-0.60156 0.39062-0.94141 0.39062z"/>
 <path fill-rule="evenodd" d="m15.348 88.465c-0.33984 0-0.67969-0.12891-0.94141-0.39062-0.51953-0.51953-0.51953-1.3633 0-1.8828l4.1758-4.1758c0.51953-0.51953 1.3633-0.51953 1.8828 0 0.51953 0.51953 0.51953 1.3633 0 1.8828l-4.1758 4.1758c-0.25781 0.26172-0.60156 0.39062-0.94141 0.39062z"/>
 <path fill-rule="evenodd" d="m19.52 88.465c-0.33984 0-0.67969-0.12891-0.94141-0.39062l-4.1758-4.1758c-0.51953-0.51953-0.51953-1.3633 0-1.8828 0.51953-0.51953 1.3633-0.51953 1.8828 0l4.1758 4.1758c0.51953 0.51953 0.51953 1.3633 0 1.8828-0.26172 0.26172-0.60156 0.39062-0.94141 0.39062z"/>
<text fill="#000000" font-family="Arbeit Regular, Helvetica, Arial-Unicode, Arial, Sans-serif" font-weight="bold" font-size="5.0" y="117.5" x="0.0">Created by Muhammad Shabraiz</text><text fill="#000000" font-family="Arbeit Regular, Helvetica, Arial-Unicode, Arial, Sans-serif" font-weight="bold" font-size="5.0" y="122.5" x="0.0">from Noun Project</text></svg>